<?xml version="1.0" encoding="UTF-8" standalone="no"?>
<!DOCTYPE svg PUBLIC "-//W3C//DTD SVG 1.1//EN" "http://www.w3.org/Graphics/SVG/1.1/DTD/svg11.dtd"
[
<!ATTLIST g
  xmlns:vectornator CDATA #FIXED "http://vectornator.io"
  vectornator:layerName CDATA #IMPLIED >
<!ATTLIST g
  xmlns:vectornator CDATA #FIXED "http://vectornator.io"
  vectornator:mask CDATA #IMPLIED >
<!ATTLIST text
  xmlns:vectornator CDATA #FIXED "http://vectornator.io"
  vectornator:width CDATA #IMPLIED >

<!ATTLIST path
  xmlns:vectornator CDATA #FIXED "http://vectornator.io"
  vectornator:blendMode CDATA #IMPLIED >
<!ATTLIST path
  xmlns:vectornator CDATA #FIXED "http://vectornator.io"
  vectornator:shadowColor CDATA #IMPLIED >
<!ATTLIST path
  xmlns:vectornator CDATA #FIXED "http://vectornator.io"
  vectornator:shadowOpacity CDATA #IMPLIED >
<!ATTLIST path
  xmlns:vectornator CDATA #FIXED "http://vectornator.io"
  vectornator:shadowRadius CDATA #IMPLIED >
<!ATTLIST path
  xmlns:vectornator CDATA #FIXED "http://vectornator.io"
  vectornator:shadowOffset CDATA #IMPLIED >
<!ATTLIST path
  xmlns:vectornator CDATA #FIXED "http://vectornator.io"
  vectornator:shadowAngle CDATA #IMPLIED >

<!ATTLIST image
  xmlns:vectornator CDATA #FIXED "http://vectornator.io"
  vectornator:blendMode CDATA #IMPLIED >
<!ATTLIST image
  xmlns:vectornator CDATA #FIXED "http://vectornator.io"
  vectornator:shadowColor CDATA #IMPLIED >
<!ATTLIST image
  xmlns:vectornator CDATA #FIXED "http://vectornator.io"
  vectornator:shadowOpacity CDATA #IMPLIED >
<!ATTLIST image
  xmlns:vectornator CDATA #FIXED "http://vectornator.io"
  vectornator:shadowRadius CDATA #IMPLIED >
<!ATTLIST image
  xmlns:vectornator CDATA #FIXED "http://vectornator.io"
  vectornator:shadowOffset CDATA #IMPLIED >
<!ATTLIST image
  xmlns:vectornator CDATA #FIXED "http://vectornator.io"
  vectornator:shadowAngle CDATA #IMPLIED >

<!ATTLIST g
  xmlns:vectornator CDATA #FIXED "http://vectornator.io"
  vectornator:blendMode CDATA #IMPLIED >
<!ATTLIST g
  xmlns:vectornator CDATA #FIXED "http://vectornator.io"
  vectornator:shadowColor CDATA #IMPLIED >
<!ATTLIST g
  xmlns:vectornator CDATA #FIXED "http://vectornator.io"
  vectornator:shadowOpacity CDATA #IMPLIED >
<!ATTLIST g
  xmlns:vectornator CDATA #FIXED "http://vectornator.io"
  vectornator:shadowRadius CDATA #IMPLIED >
<!ATTLIST g
  xmlns:vectornator CDATA #FIXED "http://vectornator.io"
  vectornator:shadowOffset CDATA #IMPLIED >
<!ATTLIST g
  xmlns:vectornator CDATA #FIXED "http://vectornator.io"
  vectornator:shadowAngle CDATA #IMPLIED >

<!ENTITY % SVG.filter.extra.content  "| feDropShadow" >
<!ELEMENT feDropShadow EMPTY>
<!ATTLIST feDropShadow
  xmlns:svg CDATA #FIXED "http://www.w3.org/Graphics/SVG/1.1/DTD/svg11.dtd"
  dx CDATA #IMPLIED>
<!ATTLIST feDropShadow
  xmlns:svg CDATA #FIXED "http://www.w3.org/Graphics/SVG/1.1/DTD/svg11.dtd"
  dy CDATA #IMPLIED>
<!ATTLIST feDropShadow
  xmlns:svg CDATA #FIXED "http://www.w3.org/Graphics/SVG/1.1/DTD/svg11.dtd"
  stdDeviation CDATA #IMPLIED>
<!ATTLIST feDropShadow
  xmlns:svg CDATA #FIXED "http://www.w3.org/Graphics/SVG/1.1/DTD/svg11.dtd"
  flood-opacity CDATA #IMPLIED>
<!ATTLIST feDropShadow
  xmlns:svg CDATA #FIXED "http://www.w3.org/Graphics/SVG/1.1/DTD/svg11.dtd"
  in CDATA #IMPLIED>
<!ATTLIST feDropShadow
  xmlns:svg CDATA #FIXED "http://www.w3.org/Graphics/SVG/1.1/DTD/svg11.dtd"
  result CDATA #IMPLIED>
<!ATTLIST feDropShadow
  xmlns:svg CDATA #FIXED "http://www.w3.org/Graphics/SVG/1.1/DTD/svg11.dtd"
  flood-color CDATA #IMPLIED>
]
>
<!-- Created with Vectornator (http://vectornator.io/) -->
<svg height="100%" stroke-miterlimit="10" style="fill-rule:nonzero;clip-rule:evenodd;stroke-linecap:round;stroke-linejoin:round;" version="1.1" viewBox="0 0 16 16" width="100%" xml:space="preserve" xmlns="http://www.w3.org/2000/svg" xmlns:vectornator="http://vectornator.io" xmlns:xlink="http://www.w3.org/1999/xlink">
<defs/>
<g id="Untitled" vectornator:layerName="Untitled">
<path d="M8 0C5.829 0 5.556 0.01 4.703 0.048C3.85 0.088 3.269 0.222 2.76 0.42C2.22609 0.620819 1.74249 0.935826 1.343 1.343C0.936076 1.7427 0.621108 2.22624 0.42 2.76C0.222 3.268 0.087 3.85 0.048 4.7C0.01 5.555 0 5.827 0 8.001C0 10.173 0.01 10.445 0.048 11.298C0.088 12.15 0.222 12.731 0.42 13.24C0.625 13.766 0.898 14.212 1.343 14.657C1.787 15.102 2.233 15.376 2.759 15.58C3.269 15.778 3.849 15.913 4.701 15.952C5.555 15.99 5.827 16 8 16C10.173 16 10.444 15.99 11.298 15.952C12.149 15.912 12.732 15.778 13.241 15.58C13.7746 15.3791 14.2578 15.0641 14.657 14.657C15.102 14.212 15.375 13.766 15.58 13.24C15.777 12.731 15.912 12.15 15.952 11.298C15.99 10.445 16 10.173 16 8C16 5.827 15.99 5.555 15.952 4.701C15.912 3.85 15.777 3.268 15.58 2.76C15.3789 2.22623 15.0639 1.74268 14.657 1.343C14.2576 0.935676 13.774 0.620645 13.24 0.42C12.73 0.222 12.148 0.0869999 11.297 0.0479999C10.443 0.01 10.172 0 7.998 0L8.001 0L8 0ZM7.283 1.442L8.001 1.442C10.137 1.442 10.39 1.449 11.233 1.488C12.013 1.523 12.437 1.654 12.719 1.763C13.092 1.908 13.359 2.082 13.639 2.362C13.919 2.642 14.092 2.908 14.237 3.282C14.347 3.563 14.477 3.987 14.512 4.767C14.551 5.61 14.559 5.863 14.559 7.998C14.559 10.133 14.551 10.387 14.512 11.23C14.477 12.01 14.346 12.433 14.237 12.715C14.1087 13.0624 13.904 13.3764 13.638 13.634C13.358 13.914 13.092 14.087 12.718 14.232C12.438 14.342 12.014 14.472 11.233 14.508C10.39 14.546 10.137 14.555 8.001 14.555C5.865 14.555 5.611 14.546 4.768 14.508C3.988 14.472 3.565 14.342 3.283 14.232C2.9355 14.1039 2.62113 13.8996 2.363 13.634C2.09675 13.376 1.89172 13.0617 1.763 12.714C1.654 12.433 1.523 12.009 1.488 11.229C1.45 10.386 1.442 10.133 1.442 7.996C1.442 5.86 1.45 5.608 1.488 4.765C1.524 3.985 1.654 3.561 1.764 3.279C1.909 2.906 2.083 2.639 2.363 2.359C2.643 2.079 2.909 1.906 3.283 1.761C3.565 1.651 3.988 1.521 4.768 1.485C5.506 1.451 5.792 1.441 7.283 1.44C7.283 1.44 7.283 1.442 7.283 1.442ZM12.271 2.77C11.7408 2.77 11.311 3.19981 11.311 3.73C11.311 4.26019 11.7408 4.69 12.271 4.69C12.8012 4.69 13.231 4.26019 13.231 3.73C13.231 3.19981 12.8012 2.77 12.271 2.77ZM8.001 3.892C6.5179 3.86886 5.13744 4.64684 4.38913 5.92752C3.64082 7.20821 3.64082 8.79279 4.38913 10.0735C5.13744 11.3542 6.5179 12.1321 8.001 12.109C10.2451 12.074 12.0459 10.2448 12.0459 8.0005C12.0459 5.75616 10.2451 3.92701 8.001 3.892ZM8.001 5.333C9.47394 5.333 10.668 6.52706 10.668 8C10.668 9.47294 9.47394 10.667 8.001 10.667C6.52806 10.667 5.334 9.47294 5.334 8C5.334 6.52706 6.52806 5.333 8.001 5.333Z" fill="#04bfad" fill-rule="evenodd" opacity="1" stroke="none"/>
</g>
</svg>
