<svg xmlns="http://www.w3.org/2000/svg" version="1.1" xmlns:xlink="http://www.w3.org/1999/xlink" xmlns:svgjs="http://svgjs.com/svgjs" width="1440" height="560" preserveAspectRatio="none" viewBox="0 0 1440 560"><g mask="url(&quot;#SvgjsMask1080&quot;)" fill="none"><rect width="1440" height="560" x="0" y="0" fill="rgba(4, 191, 173, 1)"></rect><path d="M0,578.278C102.346,549.239,177.07,472.297,266.145,414.129C354.422,356.482,476.624,333.571,521.107,237.981C565.616,142.334,493.14,34.782,491.762,-70.705C490.102,-197.829,566.177,-328.717,512.202,-443.826C455.16,-565.476,334.63,-666.12,202.129,-688.389C71.766,-710.299,-36.805,-594.555,-163.672,-557.417C-290.685,-520.236,-465.276,-577.597,-542.787,-470.328C-622.025,-360.668,-514.561,-209.064,-513.141,-73.779C-512.002,34.748,-555.622,137.846,-535.287,244.457C-510.746,373.119,-495.989,529.525,-384.848,598.836C-273.589,668.22,-126.142,614.068,0,578.278" fill="#037c71"></path><path d="M1440 1036.1970000000001C1528.789 1032.9560000000001 1608.804 986.649 1680.246 933.829 1748.254 883.548 1805.151 819.703 1838.15 741.829 1870.579 665.301 1865.0819999999999 582.076 1864.522 498.963 1863.874 402.855 1890.5140000000001 296.246 1834.62 218.06 1778.0729999999999 138.95999999999998 1667.535 129.42700000000002 1576.304 95.793 1477.977 59.543000000000006 1381.871-9.030999999999949 1279.505 13.405999999999949 1175.805 36.13599999999997 1112.007 135.39299999999997 1039.95 213.35500000000002 965.512 293.893 851.424 365.85 852.395 475.515 853.381 586.906 980.4259999999999 649.525 1044.618 740.565 1094.693 811.5840000000001 1118.618 899.7529999999999 1188.212 951.789 1260.571 1005.893 1349.71 1039.493 1440 1036.1970000000001" fill="#0dfae3"></path></g><defs><mask id="SvgjsMask1080"><rect width="1440" height="560" fill="#ffffff"></rect></mask></defs></svg>